<svg xmlns="http://www.w3.org/2000/svg" enable-background="new 0 0 47.5 47.5" viewBox="0 0 47.5 47.5"><defs><clipPath id="a"><path d="M0 38h38V0H0v38Z"/></clipPath></defs><path fill="#ccd6dd" d="m0 0-5 3 2-6-1-2 6-5 7-2 3 11L0 0z" transform="matrix(1.25 0 0 -1.25 8.75 30)"/><path fill="#ccd6dd" d="m0 0 5 3-2-6 1-2-6-5-7-2-3 11L0 0z" transform="matrix(1.25 0 0 -1.25 40 30)"/><g clip-path="url(#a)" transform="matrix(1.25 0 0 -1.25 0 47.5)"><path fill="#66757f" d="M0 0c0-3.866-3.032-7-6.771-7S-7.899 7-7.899 7 0 3.866 0 0" transform="translate(12 30)"/><path fill="#66757f" d="M0 0a6 6 0 0 0-12 0A6 6 0 0 0 0 0" transform="translate(25 7)"/><path fill="#dd2e44" d="M0 0a4 4 0 1 0-8 0 4 4 0 0 0 8 0" transform="translate(23 7)"/><path fill="#66757f" d="M0 0c-3.739 0-6.771 3.134-6.771 7s7.9 7 7.9 7S3.739 0 0 0" transform="translate(32.77 23)"/><path fill="#e6aaaa" d="M0 0a4 4 0 0 0-4-4c-2.209 0 0 8 0 8s4-1.791 4-4" transform="translate(10 29)"/><path fill="#e6aaaa" d="M0 0a4 4 0 0 0-4 4c0 2.209 4 4 4 4s2.209-8 0-8" transform="translate(32 25)"/><path fill="#66757f" d="M0 0c0-7-6.923-7-6.923-7h-18.154S-32-7-32 0c0 0 1.231 19 16 19C-1.23 19 0 0 0 0" transform="translate(35 15)"/><path fill="#272b2b" d="M0 0s0 2 2 2 2-2 2-2v-2s0-2-2-2-2 2-2 2v2z" transform="translate(12 20)"/><path fill="#272b2b" d="M0 0s0 2 2 2 2-2 2-2v-2s0-2-2-2-2 2-2 2v2z" transform="translate(22 20)"/><path fill="#ccd6dd" d="m0 0 1.229 3.162L-1.399.496a14.4 14.4 0 0 1-1.316.27v4.396l-2.518-4.121a55.155 55.155 0 0 1-3.804.121c-3.483 0-1.003-4.451-5.762-4.949-4.759.498-2.28 4.949-5.762 4.949-1.38 0-2.582-.04-3.643-.108l-2.511 4.108V.796a15.098 15.098 0 0 1-1.348-.267l-2.596 2.633 1.203-3.093c-1.689-.778-1.502-1.864-.427-2.907 5.999-5.818 9-6 9.322-6 2.46 0 4.603.998 5.762 2.481 1.159-1.483 3.303-2.481 5.762-2.481.322 0 3.323.182 9.322 6C1.329-1.825 1.532-.772 0 0" transform="translate(33.715 12.838)"/><path fill="#272b2b" d="M0 0c-1-1 0-4 3-4s4 3 3 4-5 1-6 0" transform="translate(16 12)"/></g></svg>